# xmcd CD database file
#
# Track frame offsets:
#        150
#        18772
#        39315
#        63760
#        79102
#        95500
#        112252
#        134747
#        155325
#        167415
#
# Disc length: 2526 seconds
#
# Revision: 0
# Processed by: cddbd v1.5.2PL0 Copyright (c) Steve Scherf et al.
# Submitted via: CUERipper 2.1.5
#
DISCID=7609dc0a
DTITLE=Lonnie Mack - Strike Like Lightning
DYEAR=1985
DGENRE=Blues
TTITLE0=Hound Dog Man
TTITLE1=Satisfy Susie
TTITLE2=Stop
TTITLE3=Long Way From Memphis
TTITLE4=Double Whammy
TTITLE5=Strike Like Lightning
TTITLE6=Falling Back In Love With You
TTITLE7=If You Have To Know
TTITLE8=You Ain't Got Me
TTITLE9=Oreo Cookie Blues
EXTD=
EXTT0=
EXTT1=
EXTT2=
EXTT3=
EXTT4=
EXTT5=
EXTT6=
EXTT7=
EXTT8=
EXTT9=
PLAYORDER=
